<svg version="1.1" id="Layer_1" xmlns="http://www.w3.org/2000/svg" xmlns:xlink="http://www.w3.org/1999/xlink" x="0px" y="0px"
	 width="100%" viewBox="0 0 784 592" enable-background="new 0 0 784 592" xml:space="preserve">
<path fill="#000000" opacity="1.000000" stroke="none" 
	d="
M381.368134,114.440872 
	C383.760437,105.689980 386.721527,97.553207 389.795532,89.456039 
	C391.448822,85.101181 394.181976,81.897758 399.203644,81.761383 
	C404.465576,81.618500 407.460327,84.789467 409.203583,89.343521 
	C416.716553,108.970047 422.170227,129.216980 427.343994,149.552994 
	C431.489868,165.848862 434.807983,182.321228 438.176727,198.785355 
	C438.504181,200.385864 438.988007,201.954407 439.671051,204.584412 
	C442.062103,199.374039 443.758698,194.928986 446.052673,190.817169 
	C453.210724,177.986511 462.642853,167.891068 478.076294,165.387405 
	C490.282837,163.407196 500.771973,167.436447 510.135040,174.806778 
	C521.712402,183.920120 529.932190,195.911636 537.540649,208.289566 
	C553.213623,233.787354 560.527039,261.641083 560.101868,291.504639 
	C560.010559,297.916931 559.105530,304.317627 558.519470,311.398010 
	C565.857300,310.308868 572.712219,309.295593 579.565125,308.268585 
	C580.386780,308.145447 581.195007,307.821503 582.013428,307.806396 
	C585.250244,307.746582 589.404419,306.649872 590.027588,311.367279 
	C590.615723,315.819244 586.744263,316.582642 583.393799,317.185486 
	C576.026550,318.511108 568.671082,319.967621 561.252869,320.918060 
	C557.448059,321.405548 555.827881,323.179352 554.967834,326.721283 
	C553.594360,332.377441 551.966003,337.990356 550.082275,343.497345 
	C548.854187,347.087524 549.651306,348.626923 553.467163,349.232910 
	C563.983521,350.903046 574.458191,352.835327 584.947937,354.672241 
	C586.091187,354.872498 587.255371,355.029999 588.357239,355.375122 
	C591.047058,356.217712 592.760681,357.918488 592.152344,360.926025 
	C591.542297,363.941956 589.247986,364.953308 586.493896,364.523895 
	C579.262512,363.396423 572.064758,362.055023 564.846436,360.841522 
	C558.939514,359.848511 553.013367,358.966980 547.115295,357.925568 
	C545.484802,357.637695 544.120850,357.627350 543.218689,359.209808 
	C539.854370,365.111206 536.506592,371.022034 532.841003,377.477936 
	C539.822327,381.370148 546.369690,384.917328 552.807312,388.653595 
	C555.955383,390.480682 560.966614,392.007202 558.099182,396.956696 
	C555.339905,401.719452 551.399658,398.518036 548.108215,396.778656 
	C542.511292,393.820831 536.913574,390.852661 531.447571,387.663635 
	C528.490295,385.938324 526.471375,386.105164 524.210144,388.926147 
	C497.510925,422.234314 463.312073,443.392212 421.173645,450.672516 
	C392.466919,455.632233 364.833008,450.618378 338.359375,438.722595 
	C313.097839,427.371460 291.918518,410.781769 274.742493,389.106750 
	C272.543274,386.331482 270.700928,385.838898 267.621643,387.633087 
	C261.435974,391.237274 255.082352,394.557526 248.747925,397.899994 
	C245.994659,399.352783 242.959641,400.559753 240.887573,397.008759 
	C238.802933,393.436188 241.278015,391.403900 244.034714,389.829407 
	C251.097290,385.795624 258.214264,381.857086 265.911011,377.543335 
	C262.379089,371.186859 259.031860,365.125854 255.644272,359.087463 
	C254.560349,357.155396 252.846649,357.830872 251.203613,358.111969 
	C240.051880,360.019684 228.894684,361.895447 217.739624,363.783722 
	C216.755112,363.950409 215.771408,364.123108 214.790588,364.310181 
	C211.327332,364.970764 207.696060,365.360352 206.875427,360.809540 
	C206.040421,356.179016 209.804459,355.397339 213.150009,354.788483 
	C224.116470,352.792664 235.084900,350.794922 246.089966,349.031219 
	C249.511978,348.482788 250.228714,347.057617 249.211838,343.957275 
	C247.189056,337.790283 245.275238,331.585480 243.443939,325.358795 
	C242.695923,322.815399 241.286667,321.539185 238.594910,321.128113 
	C231.033768,319.973419 223.506500,318.593994 215.973328,317.261017 
	C214.507980,317.001740 212.954346,316.792755 211.656906,316.135315 
	C209.559052,315.072296 208.400009,313.228424 209.018845,310.769867 
	C209.593674,308.486176 211.321304,307.452332 213.542633,307.713501 
	C219.817154,308.451294 226.076859,309.320557 232.333694,310.200043 
	C234.778168,310.543671 237.196747,311.234497 240.052017,310.270020 
	C239.906357,307.181519 239.859482,304.068390 239.598526,300.973297 
	C235.766785,255.530716 250.733414,216.503174 280.240143,182.551178 
	C286.300385,175.577942 293.627502,169.927475 302.569916,167.011337 
	C320.034760,161.315994 336.819061,167.393112 348.129333,183.019760 
	C352.559326,189.140335 355.582031,195.954636 359.165436,202.957809 
	C366.079895,173.394379 372.160431,143.723389 381.368134,114.440872 
M425.086273,425.267822 
	C425.027161,427.721466 422.763550,428.612030 420.925903,430.483337 
	C424.129395,431.167969 426.687683,430.733765 429.230682,430.115387 
	C442.269714,426.944489 454.549225,421.840210 466.193573,415.241364 
	C482.008423,406.279053 495.608582,394.636383 507.420959,380.833466 
	C510.075012,377.732178 509.868256,375.841339 506.110596,374.040649 
	C502.513000,372.316650 499.070282,370.249390 495.648163,368.185944 
	C493.106598,366.653534 490.772430,364.620941 492.505524,361.322540 
	C494.327423,357.855164 497.318451,358.404877 500.272705,359.926636 
	C504.563141,362.136719 508.831573,364.391327 513.156494,366.531860 
	C514.596130,367.244415 516.424500,368.401215 517.634460,366.489105 
	C519.985107,362.774597 523.044250,359.389587 524.054016,354.996490 
	C522.335388,353.756012 520.693848,353.534882 519.049011,353.248566 
	C511.507935,351.936035 503.970093,350.603699 496.440826,349.225189 
	C493.361786,348.661438 490.841614,347.102661 491.285034,343.641998 
	C491.738312,340.104584 494.647125,339.471344 497.740875,339.699707 
	C498.734619,339.773010 499.750031,339.844421 500.705261,340.102600 
	C509.091095,342.368805 517.822876,342.491272 526.284546,344.269684 
	C527.635620,344.553619 529.145142,344.895081 529.836365,343.409302 
	C532.313416,338.085480 535.070190,332.816315 535.354553,326.927368 
	C533.030457,325.718964 531.186768,326.168732 529.409546,326.414581 
	C522.492615,327.371399 515.593079,328.454010 508.677734,329.422943 
	C505.719604,329.837402 503.258789,329.115631 502.681213,325.721466 
	C502.104248,322.330597 504.334198,320.916168 507.101685,320.102783 
	C508.534912,319.681549 510.018555,319.357544 511.501984,319.193756 
	C519.446533,318.316620 527.250244,316.727661 535.057922,315.041901 
	C538.058594,314.394012 539.291199,313.142120 539.729736,310.276794 
	C545.071167,275.383636 538.420044,242.980774 518.955078,213.529617 
	C512.478027,203.729691 506.052185,193.571259 495.766998,187.005386 
	C486.881897,181.333267 477.729462,181.966919 470.055084,189.069992 
	C463.392181,195.236893 459.830261,203.230698 457.609070,211.828339 
	C459.960480,213.730774 462.474274,214.037170 464.856903,214.695923 
	C469.830078,216.070908 474.836761,217.343063 479.753387,218.898651 
	C484.134552,220.284836 486.247833,223.388962 485.540527,228.073547 
	C484.888000,232.395157 481.962280,234.810715 476.882629,234.361435 
	C471.265106,233.864548 465.668121,232.883316 460.131012,231.770386 
	C422.637543,224.234283 385.036072,224.519974 347.365387,230.119080 
	C338.812988,231.390259 330.336792,233.178848 321.780029,234.414047 
	C317.677551,235.006271 314.658691,233.156250 313.614807,228.827438 
	C312.532440,224.339005 314.131836,220.925415 318.503387,219.161728 
	C321.116180,218.107620 323.924438,217.549210 326.603790,216.646286 
	C331.428772,215.020294 336.726654,214.814865 341.435547,211.887573 
	C338.919830,202.365891 334.764648,193.992599 327.142120,187.728500 
	C322.383820,183.818207 316.932953,182.538422 310.749451,183.873642 
	C303.025696,185.541443 298.203156,190.812729 293.295593,196.415115 
	C264.613281,229.158234 252.586700,266.795441 259.159760,310.115173 
	C259.645935,313.319305 260.927826,314.870911 263.989532,315.372375 
	C268.255798,316.071167 272.490936,316.958252 276.753693,317.680420 
	C281.837616,318.541687 286.963654,319.177307 292.018646,320.177399 
	C294.893066,320.746124 296.933838,322.519775 296.377441,325.826233 
	C295.855530,328.927704 293.552582,329.699585 290.766785,329.438446 
	C288.948364,329.268005 287.136810,329.002594 285.330994,328.722839 
	C277.995636,327.586426 270.663696,326.428009 262.304932,325.116852 
	C264.273376,330.865845 266.036591,335.643982 267.531342,340.504700 
	C268.626312,344.065308 270.505493,345.011475 274.242554,344.234161 
	C282.705872,342.473907 291.270630,341.195770 299.803864,339.780243 
	C303.290375,339.201874 306.985229,339.147156 307.685333,343.577026 
	C308.337463,347.703552 305.028595,348.793152 301.685028,349.353302 
	C297.581604,350.040771 293.437744,350.555756 289.389282,351.484863 
	C284.506927,352.605408 279.212341,352.270233 274.744049,354.963379 
	C275.401123,357.923553 277.099030,359.835358 278.446899,361.908569 
	C279.777344,363.955017 280.287231,366.597076 282.845154,368.127533 
	C284.401855,367.374817 286.062622,366.632874 287.666901,365.783997 
	C291.641571,363.680847 295.548523,361.445496 299.564301,359.425537 
	C302.271881,358.063660 304.847839,358.384766 306.494354,361.192657 
	C308.138824,363.997101 306.491302,366.002441 304.347565,367.542664 
	C302.600006,368.798279 300.641968,369.769348 298.743378,370.804474 
	C295.425690,372.613281 291.958496,374.179016 289.174011,376.512299 
	C289.196075,378.152100 290.124084,378.954407 290.857635,379.828064 
	C311.121368,403.961334 336.038330,421.329010 366.654938,429.159821 
	C375.910645,431.527191 385.414154,434.350311 396.129944,430.547180 
	C405.033508,427.387238 415.172760,426.432312 425.086273,425.267822 
M412.329620,189.454361 
	C406.681671,189.431778 401.031982,189.308792 395.386078,189.405579 
	C378.986328,189.686722 382.485291,186.941422 378.883270,202.799438 
	C377.979004,206.780548 379.099701,207.897675 382.889709,207.840225 
	C391.528076,207.709274 400.169678,207.809235 408.809784,207.775833 
	C421.503143,207.726746 421.454834,207.722839 418.657745,195.238327 
	C417.950104,192.079727 417.033630,189.425110 412.329620,189.454361 
M388.457977,157.925247 
	C387.803894,161.973984 385.889191,165.808350 386.216339,170.018005 
	C388.247437,171.133926 390.284515,170.636017 392.233032,170.654999 
	C398.221344,170.713348 404.211121,170.667404 410.199860,170.611191 
	C412.492249,170.589661 412.781189,169.115387 412.640564,167.190552 
	C411.643463,153.543030 409.783020,151.935150 395.884064,152.869858 
	C395.220123,152.914505 394.549957,153.010345 393.891174,152.963470 
	C390.840149,152.746323 389.270294,154.326797 388.457977,157.925247 
M402.951874,133.038742 
	C403.210022,128.203537 401.668549,123.873886 399.220337,119.011879 
	C397.467224,124.108276 395.521515,128.378799 395.702850,133.141541 
	C398.165192,134.210480 400.270996,133.855453 402.951874,133.038742 
z"/>
<path fill="#000000" opacity="1.000000" stroke="none" 
	d="
M402.733887,422.299988 
	C386.371063,422.462891 377.204041,415.764862 372.077911,400.050598 
	C370.111084,394.021240 368.569794,387.830505 368.886841,381.441681 
	C369.078827,377.572906 367.422760,376.169891 363.870972,375.629486 
	C350.391144,373.578644 340.917358,365.655426 333.818573,354.507782 
	C330.191986,348.812714 330.903198,343.496643 335.432556,340.369812 
	C339.987183,337.225433 345.044098,338.658600 348.979858,344.267914 
	C353.066406,350.091949 357.637268,355.292694 364.918579,357.156616 
	C371.709747,358.895111 378.935516,356.212646 383.105621,350.633057 
	C384.599426,348.634338 384.586975,347.160614 382.709412,345.514862 
	C379.932617,343.080994 377.638062,340.231445 375.960693,336.919586 
	C373.059448,331.191040 373.791809,323.829437 377.873047,319.663452 
	C382.233521,315.212372 387.348083,316.037476 392.180389,318.479736 
	C397.021576,320.926483 401.418518,321.192810 406.369537,318.666443 
	C411.280975,316.160278 416.574402,315.010956 421.103577,319.750793 
	C425.034576,323.864563 425.743103,331.274933 422.961426,337.120422 
	C421.427704,340.343536 419.175201,343.020142 416.473633,345.267914 
	C414.265564,347.105103 414.538513,348.677246 416.167297,350.741394 
	C422.109039,358.271271 431.653656,359.860229 439.823364,354.667603 
	C444.300018,351.822296 447.410248,347.755463 450.474121,343.574158 
	C454.102722,338.622162 459.032623,337.421356 463.440887,340.240906 
	C468.065826,343.198975 468.953247,348.346893 465.632996,353.731598 
	C458.500488,365.298981 448.947052,373.601807 435.026672,375.605591 
	C431.313385,376.140137 430.233276,377.826202 430.081940,381.491302 
	C429.579651,393.658813 427.319427,405.309509 418.450378,414.625092 
	C414.248596,419.038391 409.244904,421.660950 402.733887,422.299988 
M407.518982,368.092010 
	C405.603729,366.256348 403.698456,364.410156 401.768555,362.590027 
	C400.948608,361.816742 400.269104,360.813568 398.842529,361.103882 
	C396.729828,361.533875 387.568512,370.793945 387.423828,373.086761 
	C386.897552,381.430023 387.319427,389.660370 390.980743,397.413574 
	C392.610016,400.863770 395.110809,402.979492 399.065887,402.967682 
	C403.120056,402.955597 405.966675,400.999359 407.763519,397.416840 
	C411.211151,390.543091 411.899384,383.202148 411.744812,375.640900 
	C411.680847,372.511261 410.745544,370.174103 407.518982,368.092010 
z"/>
<path fill="#000000" opacity="1.000000" stroke="none" 
	d="
M343.733612,273.501495 
	C348.644409,285.725494 348.749390,297.562836 343.065826,309.119812 
	C340.342285,314.657959 336.482971,319.291107 329.502655,319.301636 
	C322.740417,319.311829 318.864441,314.889801 316.214203,309.504944 
	C311.761993,300.458649 310.263855,290.944031 313.147186,280.779144 
	C317.405151,280.299530 322.753113,282.478333 324.617645,276.520508 
	C325.896332,272.434723 323.817322,269.503204 320.542725,267.380646 
	C323.009521,262.529877 327.951355,260.627502 333.086060,262.444580 
	C338.315460,264.295135 341.471588,268.216248 343.733612,273.501495 
z"/>
<path fill="#000000" opacity="1.000000" stroke="none" 
	d="
M484.612976,275.687378 
	C488.249756,286.194000 488.168427,296.277161 484.317383,306.315308 
	C483.234253,309.138489 481.843750,311.764557 479.827087,314.035156 
	C473.345459,321.333069 464.816559,321.457001 458.980194,313.647430 
	C451.577240,303.741669 450.262329,292.526947 453.165558,280.466797 
	C457.863892,280.849274 462.248047,281.869690 464.612732,276.972778 
	C466.968353,272.094635 462.829742,269.828888 460.423553,267.013489 
	C464.931244,260.405670 472.914368,260.004211 478.820465,266.007019 
	C481.409760,268.638733 483.331879,271.761444 484.612976,275.687378 
z"/>
</svg>