<svg version="1.1" id="Layer_1" xmlns="http://www.w3.org/2000/svg" xmlns:xlink="http://www.w3.org/1999/xlink" x="0px" y="0px"
	 width="100%" viewBox="0 0 1024 768" enable-background="new 0 0 1024 768" xml:space="preserve">
<path fill="#000000" opacity="1.000000" stroke="none" 
	d="
M611.234985,551.345093 
	C597.097595,558.475952 583.059692,564.679871 568.393127,569.894714 
	C548.158142,577.089417 527.642273,577.843201 506.737091,577.388977 
	C502.239502,577.291199 497.738373,577.341187 493.238922,577.348755 
	C484.882355,577.362854 477.002563,574.986755 468.965240,573.054871 
	C462.674316,571.542786 456.572388,569.630859 450.480896,567.569641 
	C441.261749,564.449951 432.396637,560.493286 423.642181,556.263489 
	C407.146240,548.293335 392.430725,537.599060 378.534546,525.864075 
	C369.053650,517.857666 360.836334,508.471375 353.228394,498.607025 
	C349.451599,493.710144 348.266357,493.658997 342.826721,496.697327 
	C334.611420,501.286072 326.356659,505.806152 318.062561,510.250732 
	C314.449371,512.186890 311.262970,511.321014 308.852203,508.041687 
	C306.305664,504.577698 308.263733,501.904938 310.942627,499.983093 
	C317.939880,494.963379 325.696564,491.189362 333.353760,487.323792 
	C341.529663,483.196350 341.579285,483.442535 336.886139,475.360657 
	C334.068085,470.507782 331.383331,465.572632 328.794373,460.593506 
	C327.278046,457.677368 325.387939,457.559113 322.252106,458.060181 
	C314.436157,459.309021 306.869171,461.694061 298.931030,462.466919 
	C291.595978,463.180969 284.340790,464.869965 277.111664,466.415771 
	C275.146332,466.836029 273.232849,467.433929 271.242340,467.221832 
	C267.273895,466.799072 264.648712,464.713257 264.607727,460.532471 
	C264.569214,456.604095 267.143616,454.295990 270.721039,453.832550 
	C282.641815,452.288330 294.246033,448.849548 306.375793,448.374390 
	C310.316315,448.220001 314.103455,445.834503 318.353241,445.529419 
	C321.481384,445.304810 320.834839,442.538879 320.002167,440.440369 
	C316.917358,432.666290 313.731567,424.951996 312.433594,416.585449 
	C311.951416,413.477417 310.225311,411.556976 306.436340,411.093933 
	C297.742798,410.031586 289.001617,409.045105 280.513062,406.654144 
	C276.945343,405.649231 272.803680,407.117035 269.733307,403.753571 
	C268.116516,401.982391 266.061035,400.504242 267.059021,397.847443 
	C268.093475,395.093567 270.003296,393.019653 273.203796,392.694122 
	C274.029755,392.610138 274.964691,392.395111 275.685883,392.669861 
	C282.728333,395.352722 290.508911,393.521027 297.557678,396.386047 
	C300.475983,397.572174 303.742340,397.207001 307.266266,396.889648 
	C308.321777,388.637787 306.550842,380.565338 306.696106,372.519165 
	C306.925262,359.824432 306.222290,346.976624 309.740143,334.517273 
	C310.956024,330.210938 311.185669,325.741760 312.216888,321.355408 
	C320.359222,286.720642 337.813965,257.258820 361.468719,231.195847 
	C368.431152,223.524612 376.798065,217.269440 386.497986,213.672073 
	C404.004761,207.179413 420.631409,209.425018 436.138000,222.183914 
	C447.954132,231.906265 454.714722,244.946747 460.322998,258.817627 
	C462.429474,258.022247 463.145660,256.196625 463.194702,254.803253 
	C463.396332,249.072647 465.627197,243.809570 466.586426,238.265976 
	C467.734009,231.633469 468.344940,224.866867 471.016052,218.572998 
	C472.457184,215.177307 472.066284,211.430954 472.788788,207.883362 
	C473.906036,202.397293 476.112549,197.225830 476.841736,191.620285 
	C477.471313,186.780579 479.520813,182.179504 480.529022,177.319397 
	C482.864655,166.060516 486.935760,155.256241 489.959839,144.160904 
	C492.360657,135.352310 494.894196,126.458572 498.855774,118.088028 
	C500.170471,115.310173 500.935455,112.319191 502.536346,109.558723 
	C506.861420,102.100845 519.910034,102.467094 523.659302,110.198372 
	C526.752625,116.576942 528.934326,123.214066 531.433838,129.784225 
	C535.185181,139.644730 537.872131,149.833542 540.512146,159.969009 
	C542.492188,167.570541 545.431580,174.915161 546.564148,182.803619 
	C547.417969,188.750320 549.638672,194.497269 551.197510,200.347382 
	C552.259399,204.332657 554.101807,208.355988 554.040344,212.338303 
	C553.942627,218.673538 557.455688,224.009918 557.768433,230.276062 
	C557.934814,233.608597 559.091736,237.344131 559.962891,240.852509 
	C561.084595,245.370010 562.357544,249.792648 562.504517,254.522095 
	C562.560181,256.311554 563.945618,258.059723 565.127563,260.739746 
	C568.456970,251.524872 571.983643,243.543488 576.938660,236.433655 
	C584.625977,225.403366 594.045105,216.482971 607.543945,212.539444 
	C627.652161,206.665085 644.421997,213.249542 658.994751,226.418457 
	C675.496582,241.330536 687.384033,259.790527 697.687073,279.429840 
	C702.366028,288.348724 706.014038,297.633911 709.446838,306.978119 
	C712.370361,314.936188 713.647583,323.483185 715.631836,331.763824 
	C720.493713,352.053436 717.429565,372.509583 718.157898,392.868744 
	C718.287598,396.494843 719.235535,398.266174 723.047546,397.628540 
	C731.334900,396.242340 739.636841,394.935577 747.900330,393.419556 
	C749.719543,393.085815 751.472717,392.453918 753.267944,393.128937 
	C756.273865,394.259125 759.150085,396.596527 758.598938,399.558258 
	C757.900513,403.311615 754.168335,405.321930 750.430420,405.914612 
	C739.805908,407.599365 729.122314,408.878540 718.564636,411.031250 
	C715.481689,411.659821 714.084656,413.072906 713.274231,416.013000 
	C711.140137,423.755005 708.938843,431.495575 706.301575,439.075714 
	C704.593384,443.985413 705.149170,444.569427 709.926208,446.166473 
	C722.052551,450.220551 735.160095,448.779968 747.168213,453.332428 
	C750.622375,454.641937 754.721191,452.898682 758.127075,455.748413 
	C760.612610,457.828094 762.403748,459.907745 760.614929,462.860504 
	C758.948853,465.610596 756.383667,467.306091 752.652100,466.710815 
	C743.549133,465.258667 734.523499,463.380035 725.397766,462.005737 
	C718.931946,461.032074 712.369751,459.825317 706.003296,458.092987 
	C701.739746,456.932861 698.722900,456.691132 696.337097,461.677094 
	C693.359497,467.900055 689.336853,473.627350 686.218445,479.841492 
	C684.930786,482.407410 685.329041,483.526001 687.849243,484.878723 
	C696.723511,489.641876 705.516968,494.565582 714.203308,499.663208 
	C717.139587,501.386383 719.784668,503.881439 717.221497,507.775116 
	C714.730530,511.559143 711.527954,511.928772 707.290649,509.581146 
	C698.618164,504.776154 689.807434,500.217285 681.193787,495.310944 
	C678.137573,493.570099 676.127686,494.009338 673.999268,496.628754 
	C663.530151,509.513092 652.360657,521.675476 639.311401,532.096252 
	C630.493103,539.138367 621.127380,545.276794 611.234985,551.345093 
M630.698120,441.963104 
	C630.795837,435.955261 635.418213,431.803192 640.021790,433.739532 
	C646.919250,436.640778 654.504578,436.161285 661.601868,438.367493 
	C665.393066,439.546021 669.765686,438.620178 673.811890,440.178802 
	C676.107178,441.062988 679.922791,441.971710 680.892395,438.812775 
	C683.125427,431.537842 687.548828,424.899109 687.757324,416.164459 
	C680.447083,418.677002 672.864563,417.370239 666.051697,419.665955 
	C660.740601,421.455566 655.593079,421.137604 650.329468,421.343079 
	C647.912720,421.437500 645.957764,420.573486 645.779846,417.826752 
	C645.591492,414.919037 644.683167,411.576416 648.487000,410.117310 
	C652.047363,408.751617 655.591370,407.328796 659.587646,407.624878 
	C662.054321,407.807587 664.730835,408.163727 666.980835,406.954498 
	C672.876221,403.786255 679.583008,404.375427 685.820557,403.175934 
	C691.404785,402.102081 693.548157,399.403900 693.841919,394.973236 
	C694.642517,382.897736 697.995911,370.898071 695.737427,358.724609 
	C694.517456,352.148560 695.438110,345.392120 693.580627,338.912476 
	C691.945435,333.207977 690.427734,327.469788 688.789917,321.766052 
	C686.384216,313.388580 683.665955,305.126526 680.052368,297.167236 
	C674.071899,283.994965 666.270203,271.938293 657.368042,260.620850 
	C650.945190,252.455383 645.105347,243.676041 635.522217,238.490082 
	C629.004883,234.963150 621.973145,232.235260 615.097595,234.994476 
	C599.116211,241.407974 592.462952,255.506805 587.646973,270.984253 
	C596.689697,275.530762 606.598145,276.050354 615.663879,279.481628 
	C621.688660,281.761932 625.090393,286.408539 623.457703,293.335358 
	C622.336304,298.093292 615.152527,302.452240 610.444519,300.507202 
	C606.294678,298.792694 602.014526,298.954071 597.883789,298.035187 
	C592.678589,296.877258 587.150879,297.167419 582.272461,295.328827 
	C575.292053,292.698120 567.875916,292.167053 560.841675,291.510468 
	C546.795959,290.199371 532.667542,288.611755 518.484375,289.019073 
	C503.670502,289.444458 488.857391,289.908630 474.047394,290.449738 
	C470.227295,290.589325 466.381653,290.844910 462.614594,291.458130 
	C453.510834,292.940125 444.259918,294.006775 435.428894,296.511902 
	C429.044373,298.322937 422.255310,297.328308 416.093567,300.496796 
	C411.800537,302.704376 404.601501,299.096710 402.712585,294.687683 
	C400.630035,289.826630 402.489441,282.841705 407.006622,280.626984 
	C410.531708,278.898682 414.488556,278.059265 418.236908,276.776245 
	C424.009735,274.800323 430.266113,274.688721 435.892578,272.063904 
	C437.506531,271.310974 438.618713,270.608673 437.916229,268.807465 
	C433.697083,257.989685 429.306458,247.151581 419.640930,239.911896 
	C415.762482,237.006851 411.414642,234.405548 406.118439,234.330734 
	C396.324860,234.192383 388.520752,238.309402 382.225586,245.449570 
	C370.654388,258.574066 359.876892,272.184387 351.246552,287.607056 
	C341.448547,305.116394 335.470093,323.871216 332.436035,343.297791 
	C329.903168,359.515228 330.667145,376.198334 332.094849,392.659973 
	C332.386963,396.027954 333.113007,401.018555 335.839050,401.731537 
	C340.065277,402.836823 344.229858,404.862122 348.812103,404.793549 
	C357.102936,404.669464 364.814972,408.755341 373.226318,408.221405 
	C374.861267,408.117615 376.691895,409.354828 378.257355,410.272034 
	C381.248596,412.024567 380.824219,414.979095 380.544037,417.810822 
	C380.276703,420.512787 378.493622,421.544373 376.074005,421.487671 
	C370.645935,421.360565 365.327789,421.440338 359.864899,419.922699 
	C352.817078,417.964752 345.326385,417.600983 337.859589,416.526672 
	C339.146454,422.827423 341.170593,428.348785 343.553650,433.664398 
	C346.978790,441.304443 347.207001,441.192749 355.744934,438.982880 
	C356.543091,438.776337 357.398438,438.802704 358.215698,438.656342 
	C367.435425,437.005157 376.832306,436.286407 385.805603,433.334198 
	C389.570557,432.095551 393.886505,434.223785 395.235626,437.857880 
	C396.545227,441.385559 394.721039,446.266541 391.109009,446.726837 
	C386.955017,447.256165 383.070892,449.565857 379.002167,449.175171 
	C371.009552,448.407776 363.983398,453.389191 356.007294,452.452454 
	C354.115234,452.230255 352.100250,453.780640 353.396118,456.029633 
	C356.336670,461.132935 359.681335,466.003357 362.863525,470.971344 
	C369.924988,467.100159 376.569427,463.398651 383.270660,459.803070 
	C388.311615,457.098389 393.374054,458.525208 394.545288,463.260406 
	C395.747528,468.120728 391.887665,470.305054 388.505493,472.283661 
	C384.382507,474.695557 380.060364,476.770630 375.798218,478.940094 
	C371.611084,481.071381 371.327545,483.323547 374.595703,486.937317 
	C378.031586,490.736633 381.599548,494.396912 385.095978,498.132538 
	C395.157532,508.882294 406.614441,517.887085 418.998383,525.791504 
	C428.456482,531.828369 438.402679,536.834961 448.630859,541.467285 
	C457.459625,545.465759 466.550293,548.861450 475.904480,550.439758 
	C484.669189,551.918579 493.603516,553.097839 502.617920,553.514099 
	C527.454407,554.660889 551.776001,552.403015 574.901245,542.962036 
	C591.314575,536.261169 606.672729,527.409973 620.823975,516.595215 
	C631.929626,508.107910 641.708679,498.251587 650.975830,487.841064 
	C655.843201,482.373169 655.415222,481.671204 648.722351,477.713654 
	C644.458069,475.192139 639.948853,473.085785 635.675781,470.577972 
	C632.029358,468.437927 630.744995,463.999603 633.048340,460.793610 
	C635.458923,457.438416 638.611938,458.257111 641.813354,460.032532 
	C648.725281,463.865875 656.055115,466.902435 663.139343,471.591003 
	C666.280334,466.504608 669.187256,461.725250 672.169250,456.993256 
	C674.162476,453.830353 672.350586,452.733368 669.621887,452.326843 
	C667.490173,452.009277 664.888428,452.752228 663.219788,451.780396 
	C655.790894,447.453644 647.210327,450.287567 639.454956,447.506317 
	C636.127625,446.313049 632.770691,446.082672 630.698120,441.963104 
M538.177124,256.745636 
	C538.029541,254.759506 537.917114,252.770004 537.728027,250.787842 
	C537.064514,243.831879 535.255371,242.157089 528.436157,242.162918 
	C518.121094,242.171753 507.806091,242.201065 497.491058,242.202332 
	C490.481964,242.203201 488.597656,244.020065 488.218048,251.260559 
	C488.087982,253.740417 488.348083,256.236786 487.462616,258.662750 
	C485.047180,265.280273 485.441315,265.498718 492.705750,265.997375 
	C506.179169,266.922272 519.622559,266.064301 533.080261,265.878479 
	C540.942383,265.769928 541.718628,264.728058 538.177124,256.745636 
M524.896179,196.535294 
	C517.406982,194.168869 509.834930,195.569305 502.292358,196.112579 
	C501.622375,196.160843 500.716614,196.864197 500.415619,197.498383 
	C497.437408,203.772659 497.093933,210.582352 495.452972,217.811920 
	C506.805939,217.811920 517.061523,217.836288 527.316895,217.798141 
	C530.715210,217.785507 530.673340,215.254395 529.848022,213.242447 
	C527.709351,208.028809 528.279968,202.098892 524.896179,196.535294 
M507.823242,169.492188 
	C509.236938,173.898438 512.759033,171.081940 515.279724,171.568649 
	C516.774353,171.857254 517.652344,170.617798 517.728394,169.087341 
	C518.019775,163.224548 515.571716,158.166687 512.956970,153.171646 
	C512.908508,153.079056 512.360291,153.248077 511.636505,153.355988 
	C511.737122,158.733444 507.510712,163.110855 507.823242,169.492188 
z"/>
<path fill="#000000" opacity="1.000000" stroke="none" 
	d="
M627.002075,689.229858 
	C621.488586,691.953003 615.905396,692.979736 610.242126,693.109131 
	C600.094666,693.341064 589.937012,693.098999 579.787537,693.280029 
	C576.085571,693.346069 575.042542,691.907410 575.773010,688.482422 
	C580.346130,667.041443 584.909546,645.598267 589.386108,624.137024 
	C589.960510,621.383362 591.377563,619.999878 594.105835,620.049744 
	C606.237915,620.271851 618.411011,619.067932 630.496948,620.835571 
	C643.156616,622.687073 647.654541,628.694519 645.330811,641.114990 
	C643.284180,652.054321 640.848083,662.924927 638.386169,673.780945 
	C636.892639,680.366699 633.486389,685.752686 627.002075,689.229858 
M621.651123,644.267273 
	C621.788208,643.448364 621.902466,642.624878 622.066162,641.811340 
	C622.756775,638.379639 624.125427,634.667297 618.959534,633.459900 
	C612.788086,632.017456 610.609985,633.360901 609.384949,639.196716 
	C607.031555,650.407776 604.635254,661.609863 602.321533,672.829102 
	C600.904297,679.700989 602.266235,680.944092 609.282471,679.750610 
	C613.296326,679.067932 614.698059,676.178833 615.461182,672.820374 
	C617.556702,663.597351 619.517273,654.343567 621.651123,644.267273 
z"/>
<path fill="#000000" opacity="1.000000" stroke="none" 
	d="
M319.427490,691.942627 
	C311.380066,692.707886 303.764557,693.419250 296.141144,694.031494 
	C289.452423,694.568604 282.811920,693.997131 276.342194,692.294922 
	C269.510834,690.497620 266.515778,686.652222 266.698730,679.654968 
	C267.009674,667.763367 271.040161,656.501892 273.028625,644.886780 
	C273.559204,641.787720 274.439270,638.728455 275.394836,635.726013 
	C277.875977,627.929932 283.311890,623.208130 291.125183,621.127014 
	C301.293427,618.418579 311.564667,619.056091 321.846558,620.268433 
	C323.002838,620.404663 324.147888,620.648987 325.306244,620.752502 
	C333.766113,621.508484 333.599182,621.462769 331.726379,629.637207 
	C330.977020,632.908142 329.372711,634.012573 326.234039,633.984375 
	C319.407562,633.922913 312.576324,634.184570 305.753052,634.036743 
	C300.944000,633.932495 298.283081,636.049194 297.317871,640.669739 
	C295.039734,651.575439 292.614441,662.451599 290.461823,673.381653 
	C289.957306,675.943481 288.829956,679.565735 293.401947,679.798462 
	C296.929230,679.977966 301.167572,681.532654 302.108215,675.432739 
	C303.246155,668.053406 305.254974,660.812500 306.656189,653.467590 
	C307.253479,650.336853 308.595825,648.754761 311.929779,648.845825 
	C316.755707,648.977600 321.588837,648.924561 326.417358,648.849731 
	C329.358032,648.804138 330.874207,649.816956 330.185089,653.012329 
	C327.661072,664.715698 325.158325,676.423706 322.665894,688.133789 
	C322.304260,689.832764 321.805176,691.373779 319.427490,691.942627 
z"/>
<path fill="#000000" opacity="1.000000" stroke="none" 
	d="
M418.018188,693.212708 
	C411.432495,693.933716 405.339874,694.319824 399.177246,693.203369 
	C389.371704,691.427063 385.344360,686.240295 386.604126,676.487854 
	C388.738312,659.965881 397.971069,652.491394 414.603851,653.846069 
	C416.427521,653.994507 418.269836,654.129822 420.052948,654.509094 
	C422.675568,655.066956 423.624786,653.817139 424.129913,651.483093 
	C424.681824,648.933044 423.623749,647.699707 421.290009,647.175476 
	C414.698486,645.694824 408.003815,646.656616 401.366394,646.298096 
	C399.579559,646.201599 396.621490,647.175781 396.711487,644.149292 
	C396.808472,640.888672 396.071869,636.040588 400.298157,635.255310 
	C411.395782,633.193359 422.640106,631.176514 433.935913,634.361084 
	C443.307495,637.003113 446.769257,642.316772 444.909943,651.925354 
	C442.667267,663.515076 439.953644,675.015564 437.824860,686.624451 
	C437.088531,690.640076 434.883179,691.804504 431.399445,692.075073 
	C427.088623,692.409790 422.783478,692.817017 418.018188,693.212708 
M410.929260,680.899292 
	C413.317261,680.690979 416.441040,682.043518 417.816071,679.416504 
	C419.653320,675.906250 420.119568,671.826416 420.416779,667.866089 
	C420.520386,666.485962 418.991882,666.162292 417.792542,666.172607 
	C415.199738,666.195190 412.065155,665.214722 410.420441,667.880249 
	C408.327698,671.271912 407.243073,675.163757 407.773651,679.246155 
	C407.908630,680.284912 409.101532,680.627991 410.929260,680.899292 
z"/>
<path fill="#000000" opacity="1.000000" stroke="none" 
	d="
M497.685791,655.916626 
	C502.156860,639.197327 510.211975,632.980164 527.087830,632.863953 
	C532.242188,632.828430 537.399414,632.656677 542.396179,634.381714 
	C549.040894,636.675781 552.364014,641.275146 552.285583,648.277649 
	C552.080017,666.641968 540.608643,676.104187 522.566589,672.762695 
	C520.600525,672.398560 518.568115,671.698364 516.677490,672.458130 
	C514.495056,673.335205 514.321106,675.527893 514.424500,677.552490 
	C514.547302,679.957520 516.542236,680.521606 518.345825,680.575500 
	C524.828247,680.769348 531.319336,680.665527 537.802979,680.835022 
	C539.892334,680.889648 543.374084,679.880066 542.948853,683.534790 
	C542.588745,686.630127 543.463745,691.612122 538.698181,691.981689 
	C528.634888,692.761841 518.611572,694.812927 508.421753,693.411316 
	C496.162170,691.724915 491.712860,685.733215 493.985901,673.379761 
	C495.037384,667.665222 496.412201,662.010132 497.685791,655.916626 
M530.100525,654.529480 
	C530.598633,651.988220 532.016724,649.109802 529.719543,647.071655 
	C527.776489,645.347656 524.837891,645.682190 522.638489,646.765625 
	C519.593872,648.265259 519.753601,651.732971 519.064636,654.555664 
	C517.645752,660.369385 519.044678,661.757751 524.942627,660.725952 
	C528.048584,660.182495 529.381104,658.159241 530.100525,654.529480 
z"/>
<path fill="#000000" opacity="1.000000" stroke="none" 
	d="
M679.825073,693.112549 
	C672.066895,693.160461 664.833740,694.730591 657.464294,693.226135 
	C647.961548,691.286316 643.285034,685.174438 645.033691,675.621826 
	C646.440979,667.934021 648.067261,660.277222 649.886292,652.676025 
	C652.324524,642.487549 658.689087,636.050232 669.059143,633.918274 
	C677.148804,632.255310 685.289368,632.045715 693.285645,634.352295 
	C700.323059,636.382324 703.382568,640.689697 703.365662,647.934082 
	C703.360962,649.927246 703.346863,651.959351 702.980652,653.906555 
	C700.043152,669.528503 690.220947,675.806580 673.678955,672.763428 
	C671.439087,672.351318 668.936218,671.200562 667.031555,673.062195 
	C665.761597,674.303528 665.365540,676.414856 665.854675,678.217285 
	C666.366272,680.102539 668.293823,680.514404 669.919006,680.560669 
	C676.411804,680.745605 682.911865,680.672668 689.404968,680.851562 
	C691.329712,680.904602 694.559631,679.887634 694.244324,683.314087 
	C693.939636,686.625671 694.833923,691.186768 689.720459,692.096680 
	C686.616394,692.649109 683.435669,692.771179 679.825073,693.112549 
M680.736877,657.161316 
	C681.196716,655.397095 681.673401,653.637085 682.112000,651.867615 
	C682.636963,649.750183 683.488220,647.141541 680.491577,646.534485 
	C677.567139,645.942017 673.863159,644.870483 672.171509,648.747253 
	C670.609009,652.327759 669.502380,656.137085 669.974548,660.671509 
	C673.867371,660.476501 677.841431,662.254089 680.736877,657.161316 
z"/>
<path fill="#000000" opacity="1.000000" stroke="none" 
	d="
M750.897888,668.781616 
	C747.695190,675.790222 744.577209,682.425842 741.655273,689.146729 
	C740.436523,691.950195 738.657410,693.251892 735.541443,693.193481 
	C728.710693,693.065369 721.874573,693.089661 715.042908,693.196472 
	C711.672791,693.249084 710.103882,691.687622 710.021851,688.446167 
	C709.587708,671.293274 709.179565,654.139709 708.725708,636.987305 
	C708.653076,634.242615 709.956848,632.976440 712.601929,632.960205 
	C717.268005,632.931519 721.934448,632.952332 726.600342,632.914978 
	C729.883301,632.888611 730.743469,634.452332 730.595886,637.655945 
	C730.067017,649.136353 730.548096,660.651428 729.439392,672.120178 
	C729.273376,673.837280 728.846619,675.751709 730.210693,677.301941 
	C732.777954,676.854797 732.754456,674.644531 733.356995,673.086670 
	C737.863647,661.434509 742.391174,649.786682 746.611145,638.029419 
	C747.961121,634.268127 750.059570,632.608215 753.969543,632.925415 
	C757.855225,633.240601 761.878357,632.216370 766.495911,634.108276 
	C761.239197,645.802246 756.150452,657.122681 750.897888,668.781616 
z"/>
<path fill="#000000" opacity="1.000000" stroke="none" 
	d="
M356.333099,667.207581 
	C354.718872,674.767395 353.072021,681.891846 351.672424,689.064575 
	C351.092316,692.037598 349.709717,693.373840 346.636047,693.259888 
	C342.648834,693.111938 338.651764,693.177429 334.659851,693.226135 
	C331.678955,693.262451 330.212463,691.945557 330.841888,688.942688 
	C334.452606,671.716980 338.122314,654.503723 341.754242,637.282471 
	C342.163483,635.341980 343.497009,634.414673 345.262665,634.278992 
	C355.194580,633.515320 365.071014,631.584229 375.056030,632.084045 
	C383.572144,632.510437 388.687683,636.412781 389.868408,643.006287 
	C391.097229,649.868408 387.960358,656.021912 385.934235,662.307556 
	C385.558655,663.472717 384.220276,663.823242 383.035461,663.965637 
	C382.047760,664.084290 381.045319,664.098389 380.048553,664.120605 
	C369.046387,664.366272 369.046387,664.364258 370.766174,653.812866 
	C371.771667,647.643860 370.112701,645.863525 364.090057,646.240173 
	C361.659912,646.392151 360.558685,647.404541 360.093811,649.742310 
	C358.959808,655.444824 357.643219,661.110901 356.333099,667.207581 
z"/>
<path fill="#000000" opacity="1.000000" stroke="none" 
	d="
M490.684692,646.209839 
	C488.559326,646.217651 486.892670,646.220642 485.226044,646.220337 
	C475.371094,646.218262 474.816040,646.593079 472.665680,656.342651 
	C471.303955,662.516663 470.398254,668.796753 468.886871,674.930420 
	C467.838593,679.184387 469.796906,680.474731 473.397552,680.632874 
	C476.224915,680.757080 479.062622,680.623657 481.894012,680.685364 
	C483.900238,680.729065 487.059204,679.635376 486.969299,682.855347 
	C486.879333,686.076660 487.556000,690.775879 483.364929,691.866577 
	C473.941376,694.319031 464.302002,695.244080 454.888275,691.533081 
	C449.286774,689.324890 446.032898,684.141235 447.033173,678.470337 
	C448.591980,669.633118 450.219818,660.779175 452.458466,652.097412 
	C455.788544,639.182922 463.801971,633.645630 478.770294,632.906921 
	C483.143311,632.691162 487.422028,633.226868 491.674316,634.049683 
	C493.971588,634.494263 497.479584,634.229858 496.781921,637.925720 
	C496.151306,641.266296 497.160217,646.313843 490.684692,646.209839 
z"/>
<path fill="#000000" opacity="1.000000" stroke="none" 
	d="
M473.967560,456.904205 
	C483.475098,457.291382 486.940796,453.850128 493.886749,445.007477 
	C490.256287,440.839935 485.845154,437.307007 483.038757,432.318390 
	C478.263245,423.829559 479.329315,411.931427 487.596985,406.721252 
	C492.310242,403.751068 497.005127,404.265076 501.822388,406.122620 
	C504.870850,407.298065 507.803619,408.908875 510.946716,409.671051 
	C515.446716,410.762268 519.170776,407.931610 523.114746,406.378357 
	C528.556152,404.235382 533.852295,403.315582 539.077515,407.176208 
	C544.791321,411.397858 546.390442,417.331329 545.607300,423.785980 
	C544.768066,430.703522 541.305664,436.581726 535.862610,441.048859 
	C532.574158,443.747650 532.918884,445.761230 535.412903,449.192657 
	C543.314575,460.064362 560.625793,458.681885 568.394104,450.564941 
	C572.037964,446.757568 575.725037,443.087555 578.662170,438.643433 
	C582.277039,433.173737 589.814148,431.093628 594.257812,433.915894 
	C601.148010,438.292023 602.733215,444.845856 598.605652,451.810608 
	C591.616211,463.604614 582.758606,473.066803 569.374573,477.983856 
	C565.884827,479.265930 562.629578,480.175690 559.020752,480.506958 
	C554.433838,480.927979 551.900085,482.984100 552.153442,488.248718 
	C552.833069,502.371063 548.406860,515.109192 540.865295,526.922119 
	C534.742859,536.512085 517.319580,542.859253 506.136658,540.155579 
	C491.810944,536.692017 484.264709,527.754944 479.040924,515.114807 
	C475.462738,506.456512 472.998352,497.707214 473.802643,488.314972 
	C474.219025,483.452759 472.095947,481.260956 467.506134,480.670410 
	C448.311432,478.200714 435.870361,466.322205 426.307251,450.672852 
	C423.160889,445.524048 425.991180,437.575897 431.784729,433.952454 
	C436.212585,431.183075 443.669281,433.067322 447.073090,438.261230 
	C449.894348,442.566315 453.280884,446.243561 456.874512,449.890503 
	C461.554077,454.639526 466.848938,457.190674 473.967560,456.904205 
M527.893494,494.402039 
	C528.428894,488.940857 528.379944,483.478394 528.020020,478.007385 
	C527.885864,475.967102 527.638367,474.134369 525.858826,472.699585 
	C523.546997,470.835663 521.332214,468.828186 519.239380,466.719910 
	C511.630188,459.054596 512.837036,460.111359 505.816406,466.784546 
	C502.655212,469.789337 497.978058,472.171356 497.706818,477.101654 
	C497.097809,488.170044 496.585632,499.270172 502.680023,509.441772 
	C506.835815,516.377808 517.006836,517.673645 521.793579,511.275177 
	C525.291260,506.599762 527.345337,501.186646 527.893494,494.402039 
z"/>
<path fill="#000000" opacity="1.000000" stroke="none" 
	d="
M432.865845,337.983276 
	C439.734070,343.815704 443.181305,351.055298 444.396332,359.508575 
	C444.701965,361.634735 445.200714,363.758484 445.863373,365.801392 
	C446.648499,368.221893 447.293518,370.682770 446.787598,373.163452 
	C444.973541,382.059021 444.207916,391.433899 439.096893,399.175232 
	C432.813049,408.693024 421.255005,413.713776 411.442291,403.963104 
	C404.014709,396.582520 400.645325,387.515137 399.873322,377.349792 
	C399.558838,373.208466 399.809998,369.022308 399.845154,364.856873 
	C399.883148,360.355194 401.789398,357.939178 406.664795,358.698608 
	C409.944794,359.209534 412.958771,358.716248 415.218506,355.905792 
	C418.534973,351.781067 418.129913,348.088989 413.932190,344.735016 
	C409.629761,341.297394 409.723511,340.251190 414.245605,337.177216 
	C420.534302,332.902344 426.596283,333.332184 432.865845,337.983276 
z"/>
<path fill="#000000" opacity="1.000000" stroke="none" 
	d="
M625.929688,379.468445 
	C623.797485,386.688995 622.635254,393.787628 618.287842,399.731049 
	C610.755249,410.028931 601.127014,411.887909 593.179260,405.647156 
	C586.220947,400.183350 582.976562,392.295105 581.525330,383.575775 
	C580.461731,377.185120 578.758240,370.987885 580.478638,364.357605 
	C581.590271,360.073547 583.364868,358.365082 587.991150,358.732788 
	C594.274536,359.232239 597.316284,355.673035 596.841553,349.688477 
	C596.680969,347.663239 595.685913,346.317017 594.322205,345.016449 
	C590.496643,341.368011 590.921997,338.662567 595.632446,336.329315 
	C602.592468,332.881805 612.044739,335.373505 616.693726,341.856873 
	C623.704956,351.634705 626.698181,362.566010 626.134277,374.530518 
	C626.063721,376.028015 626.033875,377.527405 625.929688,379.468445 
z"/>
</svg>